<mxfile host="app.diagrams.net" modified="2023-04-15T10:06:23.004Z" agent="Mozilla/5.0 (Macintosh; Intel Mac OS X 10_15_7) AppleWebKit/605.1.15 (KHTML, like Gecko) Version/15.4 Safari/605.1.15" etag="-xAx2d-HQ3lMj-014i2T" version="21.1.8" type="github">
  <diagram name="Page-1" id="maEupHlAp3xH0ajJjbWY">
    <mxGraphModel dx="954" dy="647" grid="1" gridSize="10" guides="1" tooltips="1" connect="1" arrows="1" fold="1" page="1" pageScale="1" pageWidth="827" pageHeight="1169" math="0" shadow="0">
      <root>
        <mxCell id="0" />
        <mxCell id="1" parent="0" />
        <mxCell id="Ix6y1zR_ogJjAUU8U5vY-9" value="" style="edgeStyle=orthogonalEdgeStyle;rounded=0;orthogonalLoop=1;jettySize=auto;html=1;" edge="1" parent="1" source="Ix6y1zR_ogJjAUU8U5vY-2">
          <mxGeometry relative="1" as="geometry">
            <mxPoint x="239" y="80" as="targetPoint" />
          </mxGeometry>
        </mxCell>
        <mxCell id="Ix6y1zR_ogJjAUU8U5vY-11" value="" style="rounded=0;whiteSpace=wrap;html=1;gradientColor=default;fillColor=none;dashed=1;dashPattern=12 12;" vertex="1" parent="1">
          <mxGeometry x="20" y="110" width="750" height="400" as="geometry" />
        </mxCell>
        <mxCell id="Ix6y1zR_ogJjAUU8U5vY-10" style="edgeStyle=orthogonalEdgeStyle;rounded=0;orthogonalLoop=1;jettySize=auto;html=1;entryX=0.5;entryY=0;entryDx=0;entryDy=0;entryPerimeter=0;" edge="1" parent="1" source="Ix6y1zR_ogJjAUU8U5vY-2" target="Ix6y1zR_ogJjAUU8U5vY-4">
          <mxGeometry relative="1" as="geometry">
            <mxPoint x="70" y="260" as="targetPoint" />
          </mxGeometry>
        </mxCell>
        <mxCell id="Ix6y1zR_ogJjAUU8U5vY-14" value="" style="edgeStyle=orthogonalEdgeStyle;rounded=0;orthogonalLoop=1;jettySize=auto;html=1;" edge="1" parent="1" source="Ix6y1zR_ogJjAUU8U5vY-2" target="Ix6y1zR_ogJjAUU8U5vY-12">
          <mxGeometry relative="1" as="geometry">
            <mxPoint x="340.5" y="260.5" as="targetPoint" />
            <Array as="points">
              <mxPoint x="330" y="261" />
              <mxPoint x="330" y="410" />
            </Array>
          </mxGeometry>
        </mxCell>
        <mxCell id="Ix6y1zR_ogJjAUU8U5vY-2" value="" style="sketch=0;points=[[0,0,0],[0.25,0,0],[0.5,0,0],[0.75,0,0],[1,0,0],[0,1,0],[0.25,1,0],[0.5,1,0],[0.75,1,0],[1,1,0],[0,0.25,0],[0,0.5,0],[0,0.75,0],[1,0.25,0],[1,0.5,0],[1,0.75,0]];outlineConnect=0;fontColor=#232F3E;gradientColor=#F78E04;gradientDirection=north;fillColor=#D05C17;strokeColor=#ffffff;dashed=0;verticalLabelPosition=bottom;verticalAlign=top;align=center;html=1;fontSize=12;fontStyle=0;aspect=fixed;shape=mxgraph.aws4.resourceIcon;resIcon=mxgraph.aws4.lambda;" vertex="1" parent="1">
          <mxGeometry x="209" y="230" width="61" height="61" as="geometry" />
        </mxCell>
        <mxCell id="Ix6y1zR_ogJjAUU8U5vY-3" value="" style="sketch=0;html=1;dashed=0;whitespace=wrap;fillColor=#2875E2;strokeColor=#ffffff;points=[[0.005,0.63,0],[0.1,0.2,0],[0.9,0.2,0],[0.5,0,0],[0.995,0.63,0],[0.72,0.99,0],[0.5,1,0],[0.28,0.99,0]];verticalLabelPosition=bottom;align=center;verticalAlign=top;shape=mxgraph.kubernetes.icon;prIcon=api" vertex="1" parent="1">
          <mxGeometry x="214" y="30" width="50" height="48" as="geometry" />
        </mxCell>
        <mxCell id="Ix6y1zR_ogJjAUU8U5vY-4" value="" style="sketch=0;points=[[0,0,0],[0.25,0,0],[0.5,0,0],[0.75,0,0],[1,0,0],[0,1,0],[0.25,1,0],[0.5,1,0],[0.75,1,0],[1,1,0],[0,0.25,0],[0,0.5,0],[0,0.75,0],[1,0.25,0],[1,0.5,0],[1,0.75,0]];outlineConnect=0;fontColor=#232F3E;gradientColor=#F54749;gradientDirection=north;fillColor=#C7131F;strokeColor=#ffffff;dashed=0;verticalLabelPosition=bottom;verticalAlign=top;align=center;html=1;fontSize=12;fontStyle=0;aspect=fixed;shape=mxgraph.aws4.resourceIcon;resIcon=mxgraph.aws4.secrets_manager;" vertex="1" parent="1">
          <mxGeometry x="60" y="400" width="48" height="48" as="geometry" />
        </mxCell>
        <mxCell id="Ix6y1zR_ogJjAUU8U5vY-7" value="" style="edgeStyle=orthogonalEdgeStyle;rounded=0;orthogonalLoop=1;jettySize=auto;html=1;" edge="1" parent="1" source="Ix6y1zR_ogJjAUU8U5vY-5">
          <mxGeometry relative="1" as="geometry">
            <mxPoint x="239" y="300" as="targetPoint" />
          </mxGeometry>
        </mxCell>
        <mxCell id="Ix6y1zR_ogJjAUU8U5vY-5" value="" style="sketch=0;outlineConnect=0;fontColor=#232F3E;gradientColor=none;fillColor=#B0084D;strokeColor=none;dashed=0;verticalLabelPosition=bottom;verticalAlign=top;align=center;html=1;fontSize=12;fontStyle=0;aspect=fixed;pointerEvents=1;shape=mxgraph.aws4.event_time_based;" vertex="1" parent="1">
          <mxGeometry x="214" y="400" width="50" height="50" as="geometry" />
        </mxCell>
        <mxCell id="Ix6y1zR_ogJjAUU8U5vY-16" value="" style="edgeStyle=orthogonalEdgeStyle;rounded=0;orthogonalLoop=1;jettySize=auto;html=1;" edge="1" parent="1" source="Ix6y1zR_ogJjAUU8U5vY-12" target="Ix6y1zR_ogJjAUU8U5vY-15">
          <mxGeometry relative="1" as="geometry" />
        </mxCell>
        <mxCell id="Ix6y1zR_ogJjAUU8U5vY-12" value="" style="sketch=0;points=[[0,0,0],[0.25,0,0],[0.5,0,0],[0.75,0,0],[1,0,0],[0,1,0],[0.25,1,0],[0.5,1,0],[0.75,1,0],[1,1,0],[0,0.25,0],[0,0.5,0],[0,0.75,0],[1,0.25,0],[1,0.5,0],[1,0.75,0]];outlineConnect=0;fontColor=#232F3E;gradientColor=#FF4F8B;gradientDirection=north;fillColor=#BC1356;strokeColor=#ffffff;dashed=0;verticalLabelPosition=bottom;verticalAlign=top;align=center;html=1;fontSize=12;fontStyle=0;aspect=fixed;shape=mxgraph.aws4.resourceIcon;resIcon=mxgraph.aws4.sqs;" vertex="1" parent="1">
          <mxGeometry x="380" y="400" width="48" height="48" as="geometry" />
        </mxCell>
        <mxCell id="Ix6y1zR_ogJjAUU8U5vY-19" value="" style="edgeStyle=orthogonalEdgeStyle;rounded=0;orthogonalLoop=1;jettySize=auto;html=1;entryX=0;entryY=0.5;entryDx=0;entryDy=0;entryPerimeter=0;" edge="1" parent="1" source="Ix6y1zR_ogJjAUU8U5vY-15" target="Ix6y1zR_ogJjAUU8U5vY-17">
          <mxGeometry relative="1" as="geometry">
            <mxPoint x="404" y="180" as="targetPoint" />
          </mxGeometry>
        </mxCell>
        <mxCell id="Ix6y1zR_ogJjAUU8U5vY-15" value="" style="sketch=0;points=[[0,0,0],[0.25,0,0],[0.5,0,0],[0.75,0,0],[1,0,0],[0,1,0],[0.25,1,0],[0.5,1,0],[0.75,1,0],[1,1,0],[0,0.25,0],[0,0.5,0],[0,0.75,0],[1,0.25,0],[1,0.5,0],[1,0.75,0]];outlineConnect=0;fontColor=#232F3E;gradientColor=#F78E04;gradientDirection=north;fillColor=#D05C17;strokeColor=#ffffff;dashed=0;verticalLabelPosition=bottom;verticalAlign=top;align=center;html=1;fontSize=12;fontStyle=0;aspect=fixed;shape=mxgraph.aws4.resourceIcon;resIcon=mxgraph.aws4.lambda;" vertex="1" parent="1">
          <mxGeometry x="374" y="230" width="60" height="60" as="geometry" />
        </mxCell>
        <mxCell id="Ix6y1zR_ogJjAUU8U5vY-21" value="" style="edgeStyle=orthogonalEdgeStyle;rounded=0;orthogonalLoop=1;jettySize=auto;html=1;" edge="1" parent="1" source="Ix6y1zR_ogJjAUU8U5vY-17" target="Ix6y1zR_ogJjAUU8U5vY-20">
          <mxGeometry relative="1" as="geometry" />
        </mxCell>
        <mxCell id="Ix6y1zR_ogJjAUU8U5vY-17" value="" style="outlineConnect=0;dashed=0;verticalLabelPosition=bottom;verticalAlign=top;align=center;html=1;shape=mxgraph.aws3.dynamo_db;fillColor=#2E73B8;gradientColor=none;" vertex="1" parent="1">
          <mxGeometry x="580" y="149" width="72" height="71" as="geometry" />
        </mxCell>
        <mxCell id="Ix6y1zR_ogJjAUU8U5vY-24" value="" style="edgeStyle=orthogonalEdgeStyle;rounded=0;orthogonalLoop=1;jettySize=auto;html=1;" edge="1" parent="1" source="Ix6y1zR_ogJjAUU8U5vY-20" target="Ix6y1zR_ogJjAUU8U5vY-22">
          <mxGeometry relative="1" as="geometry" />
        </mxCell>
        <mxCell id="Ix6y1zR_ogJjAUU8U5vY-20" value="" style="sketch=0;points=[[0,0,0],[0.25,0,0],[0.5,0,0],[0.75,0,0],[1,0,0],[0,1,0],[0.25,1,0],[0.5,1,0],[0.75,1,0],[1,1,0],[0,0.25,0],[0,0.5,0],[0,0.75,0],[1,0.25,0],[1,0.5,0],[1,0.75,0]];outlineConnect=0;fontColor=#232F3E;gradientColor=#F78E04;gradientDirection=north;fillColor=#D05C17;strokeColor=#ffffff;dashed=0;verticalLabelPosition=bottom;verticalAlign=top;align=center;html=1;fontSize=12;fontStyle=0;aspect=fixed;shape=mxgraph.aws4.resourceIcon;resIcon=mxgraph.aws4.lambda;" vertex="1" parent="1">
          <mxGeometry x="586" y="270" width="60" height="60" as="geometry" />
        </mxCell>
        <mxCell id="Ix6y1zR_ogJjAUU8U5vY-22" value="" style="outlineConnect=0;dashed=0;verticalLabelPosition=bottom;verticalAlign=top;align=center;html=1;shape=mxgraph.aws3.s3;fillColor=#E05243;gradientColor=none;" vertex="1" parent="1">
          <mxGeometry x="577.75" y="387" width="76.5" height="63" as="geometry" />
        </mxCell>
        <mxCell id="Ix6y1zR_ogJjAUU8U5vY-25" value="Terraform (IaC)" style="rounded=0;whiteSpace=wrap;html=1;" vertex="1" parent="1">
          <mxGeometry x="60" y="550" width="120" height="60" as="geometry" />
        </mxCell>
        <mxCell id="Ix6y1zR_ogJjAUU8U5vY-27" value="" style="sketch=0;outlineConnect=0;fontColor=#232F3E;gradientColor=none;fillColor=#B0084D;strokeColor=none;dashed=0;verticalLabelPosition=bottom;verticalAlign=top;align=center;html=1;fontSize=12;fontStyle=0;aspect=fixed;pointerEvents=1;shape=mxgraph.aws4.logs;" vertex="1" parent="1">
          <mxGeometry x="370" y="310" width="78" height="58" as="geometry" />
        </mxCell>
        <mxCell id="Ix6y1zR_ogJjAUU8U5vY-28" value="" style="sketch=0;outlineConnect=0;fontColor=#232F3E;gradientColor=none;fillColor=#B0084D;strokeColor=none;dashed=0;verticalLabelPosition=bottom;verticalAlign=top;align=center;html=1;fontSize=12;fontStyle=0;aspect=fixed;pointerEvents=1;shape=mxgraph.aws4.logs;" vertex="1" parent="1">
          <mxGeometry x="214" y="551" width="78" height="58" as="geometry" />
        </mxCell>
      </root>
    </mxGraphModel>
  </diagram>
</mxfile>
